<?xml version="1.0" encoding="UTF-8"?>
<svg xmlns="http://www.w3.org/2000/svg" id="Layer_1" data-name="Layer 1" viewBox="0 0 24 24">
  <path d="M22.992,21.067c-.005-.042-.5-4.269-1.606-9.675-1.115-5.452-2.31-9.489-2.321-9.529-.046-.155-.165-.278-.317-.331-.063-.021-1.558-.524-3.148-.2-.839,.171-1.565,.546-2.07,.868-.018-.156-.107-.295-.243-.374-.057-.034-1.423-.826-3.044-.826-1.229,0-2.315,.458-2.791,.692-.475-.235-1.56-.692-2.792-.692-1.617,0-2.986,.792-3.044,.826-.14,.082-.231,.227-.245,.388-.004,.042-.365,4.283-.365,9.8,0,5.564,.361,9.759,.365,9.801,.014,.164,.108,.311,.252,.392,.057,.033,1.421,.793,3.037,.793,1.232,0,2.32-.443,2.792-.667,.47,.224,1.557,.667,2.791,.667,1.613,0,2.979-.76,3.037-.792,.144-.081,.238-.228,.252-.393,.004-.042,.365-4.283,.365-9.8,0-.286,0-.568-.003-.846,.104,.547,.215,1.11,.333,1.687,1.115,5.452,2.31,9.489,2.321,9.529,.047,.158,.169,.282,.325,.333,.047,.015,1.336,.499,3.135,.169,1.586-.291,2.766-1.341,2.816-1.384,.125-.108,.188-.271,.169-.435ZM15.798,2.312c.976-.199,1.945-.012,2.383,.099,.132,.461,.426,1.507,.798,2.969l-4.901,1.001c-.231-1.488-.373-2.568-.433-3.044,.358-.273,1.171-.824,2.153-1.024Zm-3.242,.261c.037,.478,.115,1.561,.186,3.069H7.909V2.58c.396-.194,1.316-.581,2.333-.581,.998,0,1.908,.377,2.315,.573Zm.339,9.441c0,1.997-.048,3.825-.108,5.343H7.909V6.641h4.878c.061,1.518,.109,3.354,.109,5.373Zm-10.89,0c0-2.01,.048-3.849,.11-5.373H6.909v10.716H2.112c-.06-1.513-.107-3.338-.107-5.343ZM4.659,1.999c.947,0,1.817,.34,2.25,.542v3.1H2.158c.072-1.504,.149-2.59,.186-3.069,.407-.196,1.319-.573,2.314-.573ZM2.343,21.45c-.037-.484-.116-1.576-.187-3.093H6.909v3.123c-.435,.195-1.3,.519-2.25,.519-.996,0-1.905-.359-2.315-.549Zm7.898,.549c-1.009,0-1.93-.37-2.333-.557v-3.085h4.834c-.072,1.514-.15,2.609-.187,3.093-.409,.19-1.315,.549-2.315,.549Zm3.994-14.631l4.987-1.018c.364,1.476,.779,3.265,1.183,5.242,.4,1.957,.72,3.758,.965,5.257l-4.989,1.019c-.362-1.47-.774-3.249-1.176-5.214-.403-1.97-.724-3.781-.969-5.286Zm5.571,14.539c-.975,.199-1.938,.029-2.378-.076-.134-.466-.429-1.52-.804-2.992l4.904-1.001c.233,1.497,.376,2.584,.436,3.067-.365,.269-1.185,.803-2.158,1.002Z"/>
</svg>
